<?xml version="1.0" standalone="no"?>
<!DOCTYPE svg PUBLIC "-//W3C//DTD SVG 20010904//EN"
 "http://www.w3.org/TR/2001/REC-SVG-20010904/DTD/svg10.dtd">
<svg version="1.0" xmlns="http://www.w3.org/2000/svg"
 width="1056.000000pt" height="1056.000000pt" viewBox="0 0 1056.000000 1056.000000"
 preserveAspectRatio="xMidYMid meet">
<metadata>
Created by potrace 1.11, written by Peter Selinger 2001-2013
</metadata>
<g transform="translate(0.000000,1056.000000) scale(0.100000,-0.100000)"
fill="#000000" stroke="none">
<path d="M1659 10556 c-2 -2 -33 -7 -69 -10 -478 -50 -959 -353 -1238 -781
-135 -207 -239 -492 -269 -735 -16 -129 -8 -444 13 -544 3 -12 9 -46 15 -76
20 -104 91 -295 155 -420 267 -517 769 -870 1334 -937 126 -15 357 -9 500 13
102 15 289 71 398 120 238 105 480 287 631 474 20 25 42 52 50 60 67 70 208
331 265 488 80 224 118 540 92 767 -15 133 -19 154 -46 260 -124 482 -423 871
-855 1112 -163 91 -389 169 -550 189 -22 3 -47 8 -55 11 -16 6 -365 14 -371 9z"/>
<path d="M8560 10550 c-284 -38 -532 -128 -758 -277 -390 -257 -676 -689 -757
-1145 -20 -113 -26 -174 -31 -339 -2 -85 -6 -167 -8 -184 -23 -192 -91 -423
-172 -585 -180 -359 -461 -638 -817 -809 -58 -28 -111 -51 -119 -51 -8 0 -19
-5 -26 -12 -7 -7 -12 -9 -12 -5 0 4 -12 1 -27 -6 -31 -16 -211 -61 -283 -72
-25 -4 -58 -9 -74 -11 -16 -3 -88 -7 -160 -9 -138 -4 -287 -14 -296 -20 -3 -2
-26 -6 -50 -10 -54 -7 -155 -32 -190 -46 -14 -5 -34 -11 -45 -13 -32 -7 -142
-54 -236 -101 -77 -38 -226 -129 -239 -144 -3 -3 -25 -22 -50 -41 -274 -210
-488 -528 -596 -883 -13 -43 -26 -96 -29 -120 -4 -23 -8 -45 -11 -48 -5 -9
-13 -62 -23 -151 -13 -116 -5 -383 14 -474 3 -12 7 -38 11 -59 22 -140 128
-419 205 -540 10 -16 23 -39 28 -51 16 -37 157 -216 223 -284 59 -61 147 -139
230 -205 14 -11 109 -72 143 -92 59 -35 170 -89 242 -118 82 -33 282 -88 358
-99 22 -3 60 -8 85 -12 25 -3 104 -7 176 -9 121 -3 230 -11 279 -21 11 -3 36
-7 55 -10 153 -23 385 -111 559 -212 139 -80 356 -268 468 -407 171 -211 324
-545 358 -780 3 -22 10 -65 15 -95 6 -30 12 -127 15 -215 4 -149 9 -216 21
-290 82 -507 359 -934 789 -1214 109 -72 301 -162 405 -192 25 -7 50 -14 55
-15 140 -43 265 -59 465 -59 248 0 371 20 587 96 138 49 346 159 443 236 254
199 427 413 553 685 60 129 107 291 143 488 10 57 14 390 4 450 -4 30 -11 75
-14 100 -23 158 -124 447 -188 542 -10 14 -18 29 -18 32 0 11 -106 169 -150
225 -188 236 -442 425 -720 536 -133 53 -243 81 -420 110 -19 3 -105 7 -190
10 -329 11 -527 56 -786 181 -400 193 -742 582 -878 999 -41 125 -45 138 -50
165 -3 14 -10 50 -16 80 -35 176 -41 432 -15 580 1 8 6 35 10 60 11 65 11 69
30 140 106 415 370 783 735 1027 61 41 210 124 230 129 3 0 25 10 50 21 95 42
263 92 370 108 25 4 54 9 65 11 20 4 81 8 324 19 68 3 127 7 130 9 3 2 26 7
51 10 190 26 413 107 602 219 457 271 773 750 845 1282 16 116 8 476 -12 545
-2 8 -7 31 -10 50 -19 114 -82 295 -149 429 -210 424 -594 754 -1033 890 -110
34 -107 34 -233 57 -93 17 -390 26 -480 14z"/>
<path d="M1698 6335 c-2 -1 -29 -6 -62 -10 -127 -14 -320 -96 -446 -189 -120
-88 -244 -235 -314 -374 -29 -57 -85 -218 -91 -260 -2 -15 -6 -43 -10 -62 -12
-65 -12 -225 1 -313 32 -217 132 -420 288 -585 47 -51 149 -132 165 -132 6 0
11 -4 11 -9 0 -15 170 -97 257 -125 112 -35 158 -41 308 -41 142 0 186 5 285
34 304 87 570 326 680 612 57 147 73 232 74 379 1 159 -6 216 -40 330 -99 326
-338 577 -660 693 -71 26 -93 31 -199 47 -55 8 -239 12 -247 5z"/>
<path d="M1687 3525 c-1 -2 -32 -5 -68 -9 -36 -3 -90 -11 -120 -17 -30 -5 -65
-12 -79 -15 -44 -8 -193 -54 -245 -75 -596 -244 -1001 -766 -1092 -1409 -10
-68 -10 -408 0 -470 10 -61 18 -102 32 -165 54 -240 176 -495 327 -688 199
-254 488 -463 783 -567 110 -38 262 -76 353 -87 82 -10 379 -11 447 -1 276 39
523 132 744 280 42 28 78 54 81 57 3 3 27 24 55 46 71 57 182 169 243 245 29
36 57 71 63 78 80 98 239 426 264 542 2 8 10 42 18 75 8 33 18 76 21 95 3 19
8 46 11 60 10 50 19 177 19 265 -1 92 -12 264 -19 274 -2 4 -6 26 -10 51 -12
78 -55 233 -92 325 -131 334 -363 623 -658 820 -223 148 -490 249 -750 281
-54 6 -321 14 -328 9z"/>
</g>
</svg>
